<svg width="32" height="32" viewBox="0 0 32 32" fill="none" xmlns="http://www.w3.org/2000/svg">
  <path d="M16 2C23.732 2 30 8.268 30 16C30 23.732 23.732 30 16 30C8.268 30 2 23.732 2 16C2 8.268 8.268 2 16 2Z" fill="#FF4785"/>
  <path d="M16 6C19.866 6 23 9.134 23 13C23 16.866 19.866 20 16 20C12.134 20 9 16.866 9 13C9 9.134 12.134 6 16 6Z" fill="white"/>
  <path d="M16 10C17.657 10 19 11.343 19 13C19 14.657 17.657 16 16 16C14.343 16 13 14.657 13 13C13 11.343 14.343 10 16 10Z" fill="#FF4785"/>
  <path d="M16 22L11 26H21L16 22Z" fill="#FF4785"/>
  <path d="M16 22C17.105 22 18 22.895 18 24C18 25.105 17.105 26 16 26C14.895 26 14 25.105 14 24C14 22.895 14.895 22 16 22Z" fill="white"/>
</svg>